<svg xmlns="http://www.w3.org/2000/svg" viewBox="0 0 311.94 302.06"><defs><style>.cls-1{fill:#31535b;}</style></defs><title>Asset 3</title><g id="Layer_2" data-name="Layer 2"><g id="Layer_1-2" data-name="Layer 1"><path class="cls-1" d="M156.51,233.06a76.55,76.55,0,1,1,76.54-76.54A76.62,76.62,0,0,1,156.51,233.06Zm0-139.73a63.19,63.19,0,1,0,63.19,63.19A63.26,63.26,0,0,0,156.51,93.33Z"/><path class="cls-1" d="M96.92,89.82a5.33,5.33,0,0,1-.49,7.5h0a5.32,5.32,0,0,1-7.51-.49L49.34,51.61a5.31,5.31,0,0,1,.5-7.49h0a5.32,5.32,0,0,1,7.51.49Z"/><path class="cls-1" d="M162,65.37a5.31,5.31,0,0,1-5.27,5.35h0a5.31,5.31,0,0,1-5.36-5.29L151,5.36A5.31,5.31,0,0,1,156.25,0h0a5.32,5.32,0,0,1,5.36,5.29Z"/><path class="cls-1" d="M65.63,141.91a5.34,5.34,0,0,1,4.87,5.73h0a5.33,5.33,0,0,1-5.74,4.88L4.88,147.64A5.3,5.3,0,0,1,0,141.91H0A5.34,5.34,0,0,1,5.76,137Z"/><path class="cls-1" d="M75.28,198.83a5.31,5.31,0,0,1,7.34,1.65h0A5.33,5.33,0,0,1,81,207.82l-50.79,32.1a5.29,5.29,0,0,1-7.33-1.65h0a5.31,5.31,0,0,1,1.66-7.34Z"/><path class="cls-1" d="M120.65,238.42a5.32,5.32,0,0,1,6.85-3.11h0a5.37,5.37,0,0,1,3.12,6.87L109.44,298.4a5.29,5.29,0,0,1-6.83,3.09h0a5.29,5.29,0,0,1-3.13-6.85Z"/><path class="cls-1" d="M235.39,210.08a5.29,5.29,0,0,1-2.23-7.17h0a5.3,5.3,0,0,1,7.18-2.23l53.17,27.95a5.29,5.29,0,0,1,2.23,7.17h0a5.31,5.31,0,0,1-7.2,2.25Z"/><path class="cls-1" d="M247.57,145.25a5.31,5.31,0,0,1-5.9-4.65h0a5.31,5.31,0,0,1,4.66-5.91l59.67-7a5.31,5.31,0,0,1,5.9,4.65h0a5.33,5.33,0,0,1-4.67,5.93Z"/><path class="cls-1" d="M208.41,295a5.32,5.32,0,0,1-3.24,6.8h0a5.3,5.3,0,0,1-6.77-3.25l-20-56.68a5.31,5.31,0,0,1,3.24-6.77h0a5.31,5.31,0,0,1,6.79,3.25Z"/><path class="cls-1" d="M218.24,91.29a5.32,5.32,0,0,1-7.47.94h0a5.31,5.31,0,0,1-.92-7.45l37-47.37a5.31,5.31,0,0,1,7.46-.93h0a5.34,5.34,0,0,1,.91,7.48Z"/></g></g></svg>