<svg xmlns="http://www.w3.org/2000/svg" xmlns:xlink="http://www.w3.org/1999/xlink" viewBox="0 0 450.46 286.93"><defs><style>.cls-1{fill:#31535b;}</style><symbol id="New_Symbol" data-name="New Symbol" viewBox="0 0 450.46 286.93"><path class="cls-1" d="M274.32,76.48a4.19,4.19,0,1,0,6.3-5.54l-31.24-35.7a4.2,4.2,0,1,0-6.33,5.53Z"/><path class="cls-1" d="M327.91,55.85a4.2,4.2,0,0,0,4.16-4.22l-.34-47.46a4.2,4.2,0,1,0-8.4.07l.34,47.44A4.2,4.2,0,0,0,327.91,55.85Z"/><path class="cls-1" d="M435.91,180.6l-42-22.09a4.19,4.19,0,1,0-3.91,7.42L432,188a4.23,4.23,0,0,0,5.69-1.79A4.15,4.15,0,0,0,435.91,180.6Z"/><path class="cls-1" d="M445.77,100.86l-47.12,5.51a4.2,4.2,0,0,0,1,8.35l47.13-5.5a4.21,4.21,0,0,0-1-8.36Z"/><path class="cls-1" d="M352.93,188.22A4.2,4.2,0,0,0,345,191l15.79,44.77a4.19,4.19,0,1,0,7.9-2.8Z"/><path class="cls-1" d="M376.44,72.11l29.23-37.4A4.2,4.2,0,1,0,399,29.55L369.83,67a4.19,4.19,0,1,0,6.61,5.15Z"/><path class="cls-1" d="M327.69,61.69a61.55,61.55,0,0,0-60.88,72.44,54.28,54.28,0,0,1,14.27,2.66,48.75,48.75,0,1,1,34.16,33.59,53.68,53.68,0,0,1,2.95,14.23,61.83,61.83,0,1,0,9.5-122.92Z"/><path class="cls-1" d="M318.21,193q.18-2.22.18-4.47c0-1.3-.11-2.56-.2-3.84a53.69,53.69,0,0,0-2.95-14.22,54.15,54.15,0,0,0-48.43-36.25c-1,0-1.91-.15-2.88-.15a54,54,0,0,0-28.16,7.85,61.23,61.23,0,0,0-9.9-23.83l29.35,2.39a4.2,4.2,0,1,0,.7-8.37L218.33,109A64.81,64.81,0,0,0,169,90.15c-31.44,1.57-56.39,24.47-60.69,53.93a52,52,0,0,0-17.17-2.91,54.52,54.52,0,0,0-54.46,54.46c0,.56,0,1.1.06,1.68-15.2,4.16-36.76,13-36.73,44C0,266,21.9,286,48.74,286l2.59-.06c16.7-.83,85.9.06,85.9.05l0-1.15.36.05,0,1.09,0-1.08c9.2,1.25,30.51,1.29,80.07,1.39,0,0,37.31.62,64.34.62h0c10.15,0,18.88-.08,23.7-.33,12.83-.63,24.74-6.83,33.53-17.45a51.74,51.74,0,0,0,12.08-35C350.44,215,337.12,198.81,318.21,193ZM329,260.63c-6.38,7.7-14.87,12.18-23.91,12.64-4.7.23-13.17.31-23,.31h0c-26.94,0-64.1-.63-64.21-.63-30.9-.06-77.77-.18-80.21-.28l-.17,3-.05-3s-32-.41-57.85-.41c-12.42,0-23.44.09-28.9.37l-1.92.05c-19.48,0-35.37-14.07-35.38-31.38,0-20.59,11.25-27.28,32.09-32.43l4.71-2,.44-4.74-.23-2.91a26.47,26.47,0,0,1-.34-3.58,41.15,41.15,0,0,1,41.1-41.11,40.41,40.41,0,0,1,20,5.41l10.14,5.68L121,154c-.45-26.93,20.91-49.12,48.64-50.49l2.7-.07a51.85,51.85,0,0,1,32.5,11.33,4.11,4.11,0,0,0,1.73,1.46,48.67,48.67,0,0,1,16.75,34.27c0,.95,0,1.88-.12,4.3L222.57,172l12.07-12.29a40.8,40.8,0,0,1,29.29-12.31,41,41,0,0,1,40.26,49.29l-1.36,6.72,6.76,1.19c16,2.82,27.72,15.23,28.46,30.17A38.18,38.18,0,0,1,329,260.63Z"/></symbol></defs><title>Asset 4</title><g id="Layer_2" data-name="Layer 2"><g id="Layer_1-2" data-name="Layer 1"><use width="450.46" height="286.93" xlink:href="#New_Symbol"/></g></g></svg>