<svg xmlns="http://www.w3.org/2000/svg" viewBox="0 0 364.75 247.49"><defs><style>.cls-1{fill:#31535b;}</style></defs><title>Asset 18</title><g id="Layer_2" data-name="Layer 2"><g id="Layer_1-2" data-name="Layer 1"><path class="cls-1" d="M321.11,153.91a69.53,69.53,0,0,0-37.84-133,69.46,69.46,0,0,1,23.21,92.5A54.49,54.49,0,0,0,236.63,102c-5.54-30.8-33.53-53.77-67-52C138.06,51.6,113,74.6,108.73,104.16a52.13,52.13,0,0,0-17.26-2.94,54.71,54.71,0,0,0-54.66,54.64,16.63,16.63,0,0,0,.07,1.71C21.64,161.74,0,170.65,0,201.74c0,24.72,22,44.83,48.9,44.83l2.59-.07c16.8-.8,86.23.07,86.25.06v-1.14l.37.06.07,1.07,0-1.07c9.23,1.25,30.62,1.28,80.36,1.37,0,0,37.34.64,64.47.64,10.26,0,19.08-.09,23.95-.34,25.7-1.29,47.06-25.88,45.74-52.66C351.74,175.88,339.12,160.19,321.11,153.91Zm-14.85,79.91c-17.59.86-87.48-.32-87.62-.32-31-.06-78-.19-80.5-.28l-.15,3-.08-3s-32.11-.41-58.06-.41c-12.47,0-23.55.1-29,.37l-1.92,0c-19.57,0-35.51-14.13-35.54-31.48,0-20.7,11.31-27.43,32.23-32.63l5.14-1.31-.22-8.38a26.18,26.18,0,0,1-.34-3.55,41.34,41.34,0,0,1,41.3-41.29,40.56,40.56,0,0,1,20,5.44l10.14,5.67-.2-11.61c-.47-27,21-49.33,48.85-50.71L173,63.3c27.39,0,49.88,20.75,51.19,47.33.05.9,0,1.76-.14,4.29L223.51,132l12-12.17a41.11,41.11,0,0,1,63,5.06,69.25,69.25,0,0,1-31.35,20.88,67.39,67.39,0,0,1-9.53,2.3,69.44,69.44,0,0,0,47.52,10.14l-1.07,5.5,6.71,1.17c16.08,2.82,27.84,15.29,28.57,30.3C340.19,212.59,326.22,232.81,306.26,233.82Z"/><polygon class="cls-1" points="248.78 63.43 258.73 57.15 269.59 61.76 266.67 50.36 274.43 41.46 262.67 40.71 256.61 30.6 252.27 41.56 240.77 44.18 249.84 51.7 248.78 63.43"/><polygon class="cls-1" points="212.35 27.54 220.68 22.26 229.76 26.13 227.34 16.56 233.84 9.11 223.98 8.47 218.89 0 215.25 9.2 205.61 11.38 213.22 17.7 212.35 27.54"/></g></g></svg>