<svg xmlns="http://www.w3.org/2000/svg" viewBox="0 0 358.21 237.54"><defs><style>.cls-1{fill:#31535b;}</style></defs><title>Asset 6</title><g id="Layer_2" data-name="Layer 2"><g id="Layer_1-2" data-name="Layer 1"><path class="cls-1" d="M358.15,146.79c-1-19.5-14.59-35.94-33.93-41.76.16-1.63.23-3.24.23-4.86a55.31,55.31,0,0,0-55.24-55.23,54.57,54.57,0,0,0-29,8.28C234.79,21.78,206-1.75,172.26.1c-32.09,1.59-57.54,25.09-61.68,55.22A53.24,53.24,0,0,0,92.7,52.21a55.32,55.32,0,0,0-55.26,55.24,19.61,19.61,0,0,0,.11,2C22.1,113.65,0,122.58,0,154.12,0,177,18.63,196.68,44.22,198.77v.17l.66-.11c.39,0,.77.09,1.17.11l.18-.27c7.38-.72,33.87-1.33,58.68,19.1,16.86,13.9,36.21,17.62,54.89,19.25,4,.36,7.81.52,11.54.52,18,0,32.41-4.1,40.35-11.69,22.59-21.59,48.81-13.24,71.93-5.91,18.68,5.91,38,12.05,44.81-7.5a28.58,28.58,0,0,0,.84-17.3C346.73,186.57,359.18,167.44,358.15,146.79Zm-35.66,37.48c-5.84-5.19-13.75-6.81-20.44-4-7.28,3-11.51,9.06-11.32,16.1.16,5.9,3.38,11.14,7.85,12.75A8.46,8.46,0,0,0,308,206.3L301.47,201c-.6-.19-2.08-2.07-2.17-4.8-.09-2.49.87-5.89,6.06-8.07,3.72-1.54,8.35-.48,11.75,2.71,4.63,4.37,5.84,11.37,3.24,18.75-3.76,10.69-12.35,9.07-34.12,2.16-22.88-7.27-54.22-17.2-80.47,7.9-7.65,7.33-24.54,10.68-45.21,8.83-17.28-1.5-35.3-4.64-50.08-17.24-19.11-16.27-37.74-20.44-50.38-21a63.67,63.67,0,0,1,44.36,5.24c20.76,10.53,45.81,20.45,66.46,20.45,11.76,0,22.09-3.2,29.42-11.31,16.23-17.84,35.61-15.86,52.67-14.12,15.21,1.57,31,3.16,36.35-14,2.91-9.32.85-18.06-5.62-24-6.75-6.16-17.46-8.18-25.49-4.83-9.09,3.81-9.91,10-9.87,12.53.15,5.1,3.85,10,9,11.81a10.51,10.51,0,0,0,11.81-2.94l-6.48-5.61c-.29.31-.87,1-2.46.47-1.75-.62-3.28-2.44-3.31-4-.08-2.19,3.19-3.79,4.6-4.38,5-2.08,12.06-.7,16.4,3.25,2.82,2.57,5.65,7.27,3.2,15.07-3.13,10.06-11.11,9.71-27.3,8-17.2-1.75-40.76-4.17-59.86,16.89-17.54,19.34-61.2,1.39-85.68-11-27.25-13.84-51.78-6.6-63.07-1.67a38.94,38.94,0,0,1-17.44-6c10.34-6.49,41.71-22.48,76.22-3.59,20.8,11.4,38.5,15.27,53,15.27,21.11,0,35.32-8.26,42.19-13.48,10.6-8.07,11.06-22.54,6.12-32.05-4.3-8.26-13.95-15.44-28.22-10.94a15,15,0,0,0-10.43,18.11c1.74,7,8.57,13.24,20,11.22l-1.49-8.43c-6.29,1.07-9.39-1.78-10.13-4.83a6.51,6.51,0,0,1,4.68-7.9c11.23-3.61,16.36,3.5,18,6.71,3.39,6.51,2.91,16.25-3.71,21.29-10.23,7.78-39.07,23.15-85.86-2.49-40.91-22.39-78-.82-87.08,5.3a30,30,0,0,1-8.21-20.21c0-21.31,11.62-28.22,33.07-33.55l4.84-1.84.14-4.88-.22-2.62a26.17,26.17,0,0,1-.37-3.77A42.43,42.43,0,0,1,92.7,65.07a41.53,41.53,0,0,1,20.55,5.57L123,76.11l-.19-11.19c-.47-27.72,21.5-50.56,50.06-52l2.77-.08c28.08,0,51.13,21.27,52.46,48.47.06,1,0,1.93-.11,4.42l-.59,16.52L239,70.49a42.34,42.34,0,0,1,71.73,38.15l-1.3,6.46,6.49,1.14c16.56,2.89,28.63,15.72,29.4,31.18C346.05,161.83,336.8,177.93,322.49,184.27Z"/></g></g></svg>