<svg xmlns="http://www.w3.org/2000/svg" viewBox="0 0 359.71 351.78"><defs><style>.cls-1{fill:#31535b;}</style></defs><title>Asset 20</title><g id="Layer_2" data-name="Layer 2"><g id="Layer_1-2" data-name="Layer 1"><path class="cls-1" d="M335.08,122.65A69.55,69.55,0,0,0,278.24,1,69.44,69.44,0,0,1,308.69,74.4,55.07,55.07,0,0,0,269.2,57.72a54.37,54.37,0,0,0-29,8.28C234.8,34.54,206,11,172.24,12.87c-32.1,1.6-57.52,25.09-61.69,55.23A52.92,52.92,0,0,0,92.69,65a55.3,55.3,0,0,0-55.24,55.23c0,.66,0,1.31.06,2C22.1,126.43,0,135.35,0,166.9c0,23.44,19.5,43.55,46,44.81l8.13-12.53c-1,0-2.05,0-2.81.08l-2,.06c-20.11,0-36.51-14.56-36.52-32.44,0-21.3,11.6-28.23,33.08-33.55l4.83-1.84.15-4.88L50.67,124a26.16,26.16,0,0,1-.35-3.77A42.43,42.43,0,0,1,92.69,77.83a41.75,41.75,0,0,1,20.57,5.58L123,88.88l-.19-11.18c-.48-27.74,21.52-50.57,50.08-52l2.76-.08c28.09,0,51.11,21.28,52.47,48.48.05.95,0,1.92-.13,4.42l-.58,16.51L239,83.26a42.28,42.28,0,0,1,64.9,5.43,68.56,68.56,0,0,1-51.35,39.51,69.44,69.44,0,0,0,58.91,7.61A70.28,70.28,0,0,0,322.8,131c12.9,4.81,21.85,16,22.5,29.25.78,15.51-9.91,33.14-26.13,38.26l4.3,12c20.46-6.81,35.81-28,34.66-50.86C357.37,144,348.46,130.48,335.08,122.65Z"/><rect class="cls-1" x="72.48" y="202.82" width="3.71" height="3.71"/><path class="cls-1" d="M95,232.4l.76-4.87,5,5,.09,6.17,1.81-5.45,5.79-2.14h-6.17l-5-4.84,4.86-1.4-2.85-3.72h7.09l4.36,4.65-2.37-5.69,2.37-5.38-4.36,4.55H99.25l2.55-4-4.56-.85,5-5.1h6.17l-5.65-2.05-2.15-5.65v6.27L95.74,213,95,208.16l-4.08,2.78V204l4.47-4.66L90,202l-5.59-2.46L88.92,204v6.92l-4.16-2.51L84.08,213l-5-5.12v-6.27l-1.94,5.65-5.82,2.24h6.28l5,4.91-5.16,1.13,3.17,3.72H73.48L69,214.73l2.16,5.57L69,225.8l4.49-4.65h7.09l-3.17,4.13,5.16.82-5,5H71.27l5.82,2L79,238.7l.07-6.17,4.86-4.83.87,5,4.16-3.1v7.13l-4.48,4.36,5.46-2.4,5.35,2.4-4.35-4.36v-7.13Zm.09-8.18-2.85-3.07h4.37Zm.18-7.79,1.07,2.85h-4.1ZM91,213.78,93.92,215,91,217.83Zm0,8.81,2.92,2.83L91,226.86Zm-6.56-6.16,3,2.85H83.41Zm.2,7.79-1.23-3.07h4.08Zm4.28,2.53-2.75-1.12,2.75-3Zm0-8.92L86.17,215l2.75-1.21Z"/><rect class="cls-1" x="103.27" y="233.77" width="3.72" height="3.68"/><polygon class="cls-1" points="87.18 242.37 89.81 244.98 92.46 242.37 89.81 239.73 87.18 242.37"/><polygon class="cls-1" points="89.7 195.13 87.08 197.75 89.7 200.38 92.34 197.75 89.7 195.13"/><rect class="cls-1" x="103.56" y="202.82" width="3.7" height="3.71"/><polygon class="cls-1" points="114.51 220.17 111.87 217.56 109.22 220.17 111.87 222.78 114.51 220.17"/><polygon class="cls-1" points="67.46 217.64 64.85 220.3 67.48 222.86 70.08 220.3 67.46 217.64"/><rect class="cls-1" x="72.67" y="233.77" width="3.72" height="3.68"/><rect class="cls-1" x="221.73" y="172.79" width="4.78" height="4.81"/><path class="cls-1" d="M237.23,222.39l7.07-3.1,6.94,3.1-5.66-5.65v-9.23l5.33,3.62,1-6.3,6.47,6.49.14,8,2.36-7.08,7.5-2.79h-8l-6.51-6.25,6.27-1.84-3.68-4.81h9.2l5.66,6.06-3.09-7.38,3.09-7-5.66,5.88h-9.2l3.32-5.17-5.91-1.1,6.51-6.62h8L261,178.57l-2.77-7.33v8.12L251.88,186l-1-6.32-5.33,3.62v-9l5.82-6-6.93,3.45-7.24-3.18,5.8,5.78v9l-5.39-3.25-.89,5.95-6.52-6.65v-8.12l-2.54,7.33-7.56,2.9h8.14l6.5,6.38-6.68,1.46,4.11,4.81H223l-5.77-5.88,2.78,7.2-2.78,7.17,5.77-6.06h9.22l-4.11,5.35,6.68,1.06-6.5,6.49h-8.14l7.56,2.61,2.43,7.26.11-8,6.27-6.26,1.14,6.46,5.39-4v9.23ZM251,200.53l-3.72-4H253Zm.23-10.09,1.37,3.68h-5.32ZM245.72,187l3.8,1.59-3.8,3.69Zm0,11.43,3.8,3.68-3.8,1.86ZM243,187v5.28l-3.56-3.69Zm-5.8,3.46,3.94,3.68h-5.29Zm.25,10.09-1.6-4h5.29Zm2,1.82,3.56-3.94v5.42Z"/><rect class="cls-1" x="221.93" y="212.91" width="4.84" height="4.77"/><polygon class="cls-1" points="247.6 224.07 244.19 220.66 240.77 224.07 244.19 227.44 247.6 224.07"/><polygon class="cls-1" points="218.6 195.44 215.19 192.01 211.8 195.44 215.23 198.78 218.6 195.44"/><rect class="cls-1" x="261.64" y="212.91" width="4.82" height="4.77"/><polygon class="cls-1" points="272.78 191.91 269.38 195.27 272.78 198.68 276.21 195.27 272.78 191.91"/><rect class="cls-1" x="262" y="172.79" width="4.81" height="4.81"/><polygon class="cls-1" points="244.04 162.83 240.65 166.21 244.04 169.62 247.46 166.21 244.04 162.83"/><path class="cls-1" d="M155.62,326.93l-3.09-7.39,3.09-7L150,318.45h-9.21l3.33-5.17-5.9-1.1,6.49-6.63h8l-7.31-2.66-2.79-7.32v8.13l-6.36,6.64-1-6.31-5.3,3.61v-9l5.79-6-6.91,3.44-7.22-3.19,5.76,5.79v9L122,304.38l-.88,6-6.53-6.64v-8.13L112,302.89l-7.57,2.92h8.14l6.51,6.37-6.69,1.45,4.11,4.82h-9.22l-5.78-5.88,2.79,7.2-2.79,7.16,5.78-6.06h9.22l-4.11,5.37,6.69,1.05-6.51,6.49h-8.14L112,336.4l2.43,7.25.09-8,6.29-6.28,1.12,6.48,5.38-4v9.23l-5.76,5.65,7-3.11,6.92,3.11-5.63-5.65v-9.23l5.3,3.63,1-6.31,6.48,6.49.14,8,2.37-7.07,7.47-2.8h-8l-6.49-6.25,6.27-1.84-3.7-4.82H150Zm-34-12.16,3.92,3.68h-5.29Zm.24,10.09-1.61-4h5.29Zm5.52,3.3-3.55-1.47,3.55-3.95Zm0-11.57-3.55-3.7,3.55-1.57Zm8.21-1.82,1.39,3.68h-5.32Zm-5.5-3.45,3.8,1.57-3.8,3.7Zm0,17v-5.54l3.8,3.69Zm5.3-3.42-3.73-4h5.67Z"/><polygon class="cls-1" points="128.37 287.15 124.97 290.54 128.37 293.94 131.79 290.54 128.37 287.15"/><rect class="cls-1" x="146.33" y="297.12" width="4.8" height="4.81"/><rect class="cls-1" x="106.05" y="297.12" width="4.79" height="4.81"/><rect class="cls-1" x="106.27" y="337.23" width="4.84" height="4.79"/><polygon class="cls-1" points="99.52 316.34 96.13 319.77 99.56 323.12 102.93 319.77 99.52 316.34"/><polygon class="cls-1" points="153.71 319.61 157.12 322.99 160.52 319.61 157.12 316.23 153.71 319.61"/><rect class="cls-1" x="145.96" y="337.23" width="4.83" height="4.79"/><polygon class="cls-1" points="125.08 348.39 128.53 351.78 131.93 348.39 128.53 345 125.08 348.39"/><polygon class="cls-1" points="197.67 242.27 195.3 244.61 197.67 246.98 200.04 244.61 197.67 242.27"/><rect class="cls-1" x="210.15" y="249.2" width="3.33" height="3.34"/><path class="cls-1" d="M216.58,269.91l-2.14-5.16,2.14-4.83L212.65,264h-6.4l2.33-3.57-4.1-.78,4.52-4.58h5.56l-5.11-1.87-1.91-5.07v5.65l-4.42,4.6-.69-4.39-3.69,2.51v-6.23l4-4.19-4.79,2.4-5-2.21,4,4v6.23l-3.75-2.26-.6,4.14-4.55-4.6v-5.65l-1.74,5.07-5.25,2h5.63l4.52,4.42-4.63,1,2.84,3.33H183l-4-4.07,1.94,5-1.94,5,4-4.21h6.4l-2.84,3.7,4.63.75-4.52,4.51h-5.63l5.25,1.81,1.68,5,.06-5.56,4.36-4.35.79,4.5,3.75-2.8v6.42l-4,3.91,4.91-2.13,4.83,2.13-3.93-3.91V273.3l3.69,2.52.69-4.38L207.6,276l.11,5.56,1.64-4.91,5.21-1.94H209l-4.52-4.35,4.35-1.27-2.58-3.34h6.4Zm-23.65-8.47,2.75,2.55H192Zm.2,7L192,265.7h3.69Zm3.84,2.29-2.49-1L197,267Zm0-8.05-2.49-2.55,2.49-1.09Zm5.7-1.26,1,2.55h-3.7Zm-3.82-2.38,2.6,1.09-2.6,2.55Zm0,11.77V267l2.6,2.57Zm3.67-2.37-2.6-2.76h4Z"/><rect class="cls-1" x="182.15" y="249.2" width="3.35" height="3.34"/><polygon class="cls-1" points="177.63 262.54 175.26 264.92 177.65 267.25 180 264.92 177.63 262.54"/><polygon class="cls-1" points="215.26 264.81 217.64 267.17 220.02 264.81 217.64 262.46 215.26 264.81"/><rect class="cls-1" x="209.91" y="277.05" width="3.34" height="3.33"/><rect class="cls-1" x="182.32" y="277.05" width="3.36" height="3.33"/><polygon class="cls-1" points="195.41 284.81 197.76 287.15 200.13 284.81 197.76 282.44 195.41 284.81"/><rect class="cls-1" x="149.2" y="193.33" width="2.35" height="2.36"/><path class="cls-1" d="M173.43,207.92l-1.5-3.62,1.5-3.41-2.77,2.87h-4.5l1.63-2.52-2.89-.54,3.18-3.24H172l-3.59-1.31-1.34-3.57v4L164,199.8l-.48-3.09-2.6,1.76V194.1l2.84-3-3.37,1.68-3.56-1.54,2.84,2.82v4.37L157,196.9l-.43,2.9-3.2-3.25v-4l-1.23,3.57-3.7,1.43h4l3.18,3.12-3.27.71,2,2.35h-4.52L147,200.89l1.36,3.51L147,207.92l2.82-3h4.52l-2,2.61,3.27.53-3.18,3.18h-4l3.7,1.26,1.2,3.56,0-3.92,3.07-3.07.56,3.17,2.64-2v4.52l-2.84,2.75,3.47-1.51,3.38,1.51-2.76-2.75v-4.52l2.6,1.77L164,209l3.16,3.16.07,3.92,1.16-3.47,3.66-1.35h-3.92l-3.18-3.07,3.06-.9-1.8-2.35h4.5Zm-16.65-6,1.93,1.8h-2.58Zm.13,4.93-.78-1.94h2.58Zm2.71,1.62-1.75-.72,1.75-1.93Zm0-5.67-1.75-1.79,1.75-.78Zm4-.88.69,1.8H161.7Zm-2.69-1.69,1.83.78-1.83,1.79Zm0,8.3v-2.71l1.83,1.81Zm2.57-1.68L161.7,205h2.79Z"/><polygon class="cls-1" points="160.11 188.46 158.45 190.11 160.11 191.78 161.79 190.11 160.11 188.46"/><polygon class="cls-1" points="174.18 202.67 172.51 204.33 174.18 205.98 175.84 204.33 174.18 202.67"/><rect class="cls-1" x="149.31" y="212.94" width="2.38" height="2.34"/><rect class="cls-1" x="168.91" y="193.33" width="2.35" height="2.36"/><polygon class="cls-1" points="146 202.73 144.34 204.4 146.02 206.04 147.67 204.4 146 202.73"/><polygon class="cls-1" points="158.52 218.4 160.18 220.05 161.84 218.4 160.18 216.73 158.52 218.4"/><rect class="cls-1" x="168.72" y="212.94" width="2.37" height="2.34"/><polygon class="cls-1" points="260.19 288.43 262.08 290.31 263.99 288.43 262.08 286.51 260.19 288.43"/><polygon class="cls-1" points="276.14 272.37 278.05 274.25 279.94 272.37 278.05 270.47 276.14 272.37"/><rect class="cls-1" x="249.67" y="282.2" width="2.69" height="2.66"/><path class="cls-1" d="M277.2,276.44l-1.71-4.12,1.71-3.89L274,271.71h-5.12l1.86-2.88-3.32-.61,3.66-3.71h4.45l-4.1-1.47L269.93,259v4.53l-3.55,3.7-.56-3.53-2.95,2v-5l3.24-3.38-3.87,1.94-4-1.78,3.23,3.22v5l-3-1.81-.49,3.32-3.63-3.7V259L252.89,263l-4.22,1.61h4.53l3.61,3.57-3.71.8,2.3,2.69h-5.15L247,268.43l1.57,4-1.57,4,3.24-3.37h5.15l-2.3,3,3.71.61-3.61,3.62h-4.53l4.22,1.46,1.35,4,.06-4.46,3.49-3.5.63,3.6,3-2.24v5.16l-3.23,3.14,3.93-1.73,3.86,1.73-3.13-3.14v-5.16l2.95,2,.56-3.53,3.62,3.64.07,4.46,1.32-4,4.17-1.55h-4.45l-3.66-3.48,3.52-1-2.06-2.68H274Zm-19-6.78,2.2,2h-3Zm.14,5.64-.91-2.23h3Zm3.09,1.82-2-.8,2-2.22Zm0-6.46-2-2.05,2-.88Zm4.56-1,.79,2h-3Zm-3.07-1.93,2.13.88-2.13,2.05Zm0,9.47v-3.1l2.13,2.06Zm3-1.9-2.08-2.23H267Z"/><rect class="cls-1" x="271.82" y="282.2" width="2.7" height="2.66"/><rect class="cls-1" x="272.01" y="259.8" width="2.7" height="2.69"/><polygon class="cls-1" points="262 258.04 263.92 256.12 262 254.24 260.09 256.12 262 258.04"/><rect class="cls-1" x="249.54" y="259.8" width="2.67" height="2.69"/><polygon class="cls-1" points="245.9 270.53 244.02 272.44 245.92 274.31 247.82 272.44 245.9 270.53"/></g></g></svg>