<?xml version="1.0" encoding="utf-8"?>
<!-- Generator: Adobe Illustrator 22.1.0, SVG Export Plug-In . SVG Version: 6.00 Build 0)  -->
<svg version="1.1" id="Layer_1" xmlns="http://www.w3.org/2000/svg" xmlns:xlink="http://www.w3.org/1999/xlink" x="0px" y="0px"
	 viewBox="0 0 358.2 336.4" style="enable-background:new 0 0 358.2 336.4;" xml:space="preserve">
<style type="text/css">
	.st0{fill:#FFFFFF;}
</style>
<title>Asset 11</title>
<g id="Layer_2_1_">
	<g id="Layer_1-2">
		<path class="st0" d="M324.2,105c0.1-1.6,0.2-3.3,0.2-4.9c0-30.5-24.8-55.2-55.3-55.2c-10.3,0-20.3,2.8-29,8.3
			C234.8,21.8,206-1.8,172.2,0.1c-32.1,1.6-57.5,25.1-61.7,55.2c-5.7-2.1-11.8-3.1-17.9-3.1c-30.5,0-55.2,24.7-55.2,55.2
			c0,0.7,0,1.3,0.1,2C22.1,113.6,0,122.6,0,154.1c0,23.4,19.5,43.6,46,44.8l8.1-12.5c-1,0-2,0-2.8,0.1h-2
			c-20.1,0-36.5-14.6-36.5-32.4c0-21.3,11.6-28.2,33.1-33.5l4.8-1.8l0.1-4.9l-0.2-2.6c-0.2-1.2-0.3-2.5-0.4-3.8
			c0.1-23.4,19-42.3,42.4-42.3c7.2,0,14.3,2,20.6,5.6l9.7,5.5l-0.2-11.2c-0.5-27.7,21.5-50.6,50.1-52l2.8-0.1
			c28.1,0,51.1,21.3,52.5,48.5c0.1,1,0,1.9-0.1,4.4l-0.6,16.5L239,70.5c16.4-16.7,43.2-16.9,59.9-0.6c8.1,8,12.7,18.9,12.7,30.2
			c0,2.8-0.3,5.7-0.9,8.5l-1.3,6.5l6.5,1.1c16.5,2.9,28.6,15.7,29.4,31.2s-9.9,33.2-26.1,38.3l4.3,12c20.5-6.8,35.9-28,34.7-50.8
			C357.2,127.3,343.6,110.8,324.2,105z"/>
		<path class="st0" d="M114.9,248.9L114.9,248.9c-21.3-28.6-19.9-77.8-20.9-62c-2.7,41.1-18.9,62-18.9,62l0,0
			c-1.4,2.6-2.1,5.5-2.1,8.4c0,10.9,9.9,19.7,22,19.7s22-8.8,22-19.7C117,254.4,116.3,251.5,114.9,248.9z"/>
		<path class="st0" d="M182.6,210.2L182.6,210.2c-18.6-24.9-17.4-67.9-18.3-54.2c-2.4,36-16.5,54.2-16.5,54.2l0,0
			c-1.2,2.3-1.8,4.8-1.9,7.4c0,9.5,8.6,17.2,19.2,17.2s19.2-7.7,19.2-17.2C184.5,215,183.8,212.5,182.6,210.2z"/>
		<path class="st0" d="M163.4,302.8L163.4,302.8c-14.5-19.4-13.5-52.8-14.2-42.1c-1.8,27.9-12.8,42.1-12.8,42.1l0,0
			c-0.9,1.8-1.4,3.7-1.4,5.7c0,7.4,6.7,13.4,14.9,13.4s14.9-6,14.9-13.4C164.8,306.5,164.3,304.5,163.4,302.8z"/>
		<path class="st0" d="M127,162.7L127,162.7c-10.7-14.4-10-39.1-10.5-31.2c-1.3,20.7-9.5,31.2-9.5,31.2l0,0
			c-0.7,1.3-1.1,2.8-1.1,4.2c0,5.5,5,9.9,11.1,9.9s11.1-4.4,11.1-9.9C128.1,165.4,127.7,164,127,162.7z"/>
		<path class="st0" d="M241.3,183.9c0,8-6.5,14.5-14.5,14.5s-14.5-6.5-14.5-14.5c0-8,6.5-14.5,14.5-14.5c0,0,0,0,0,0
			C234.8,169.4,241.3,175.9,241.3,183.9z"/>
		<path class="st0" d="M304,228.1c0,8-6.5,14.5-14.5,14.5s-14.5-6.5-14.5-14.5c0-8,6.5-14.5,14.5-14.5l0,0
			C297.5,213.6,304,220.1,304,228.1z"/>
		<path class="st0" d="M249.8,321.9c0,8-6.5,14.5-14.5,14.5s-14.5-6.5-14.5-14.5s6.5-14.5,14.5-14.5
			C243.3,307.4,249.8,313.9,249.8,321.9L249.8,321.9z"/>
		<path class="st0" d="M295.9,178.3c0,5.8-4.7,10.5-10.4,10.5c-5.8,0-10.5-4.7-10.5-10.4s4.7-10.5,10.4-10.5c0,0,0,0,0,0
			C291.2,167.8,295.8,172.5,295.9,178.3z"/>
		<path class="st0" d="M251.4,248.1c0,7.3-5.9,13.2-13.2,13.2c-7.3,0-13.2-5.9-13.2-13.2c0-7.3,5.9-13.2,13.2-13.2c0,0,0,0,0,0
			C245.5,234.9,251.4,240.8,251.4,248.1z"/>
		<path class="st0" d="M302.7,290.3c0,7.3-5.9,13.2-13.2,13.2c-7.3,0-13.2-5.9-13.2-13.2s5.9-13.2,13.2-13.2c0,0,0,0,0,0
			C296.7,277.1,302.7,283,302.7,290.3z"/>
	</g>
</g>
</svg>
