<svg xmlns="http://www.w3.org/2000/svg" viewBox="0 0 348.89 144.63"><defs><style>.cls-1{fill:#31535b;}</style></defs><title>Asset 31</title><g id="Layer_2" data-name="Layer 2"><g id="Layer_1-2" data-name="Layer 1"><path class="cls-1" d="M340.11,81c-7.05-6.64-16.89-8.71-25.17-5.26-8.74,3.63-13.84,10.88-13.6,19.34.17,7.1,4.06,13.39,9.42,15.32,4,1.41,8.24.18,11.29-3.33l-7.81-6.35c-.73-.25-2.47-2.51-2.61-5.81-.13-3,1.07-7.06,7.3-9.69,4.45-1.87,10-.59,14.13,3.25,5.55,5.26,7,13.68,3.89,22.55-4.53,12.85-14.82,10.91-41,2.61-27.51-8.73-65.21-20.69-96.74,9.48-9.23,8.83-29.5,12.86-54.38,10.64C124,132,102.34,128.18,84.57,113,66,97.17,47.74,90.92,33.39,88.73A76.34,76.34,0,0,1,79,96.5c25,12.67,55.11,24.61,80,24.61,14.12,0,26.54-3.86,35.38-13.6,19.48-21.45,42.81-19.08,63.32-17,18.3,1.92,37.22,3.8,43.69-16.8,3.51-11.23,1-21.71-6.73-28.83-8.13-7.41-21-9.84-30.66-5.8C253,43.65,252,51.13,252.13,54.14c.15,6.15,4.61,12,10.8,14.2a12.68,12.68,0,0,0,14.24-3.54l-7.79-6.73c-.36.38-1.06,1.22-3,.55-2.13-.74-4-2.93-4-4.77-.07-2.64,3.87-4.56,5.54-5.27,6-2.5,14.51-.84,19.71,3.92,3.41,3.08,6.81,8.73,3.85,18.12-3.77,12.1-13.35,11.66-32.81,9.67-20.7-2.1-49-5.05-72,20.31-21.11,23.26-73.61,1.67-103-13.29A86.54,86.54,0,0,0,50.29,78,68.49,68.49,0,0,1,83.36,85C104.28,95.21,121.8,98.16,136,97.47c20.67-1,34.18-9.75,40.66-15.19,10-8.39,9.76-22.57,4.52-31.68-4.62-7.87-14.44-14.45-28.19-9.35a14.65,14.65,0,0,0-9.31,18.21c2,6.77,8.94,12.58,20,10l-1.84-8.16c-6.12,1.32-9.28-1.32-10.16-4.29a6.36,6.36,0,0,1,4.19-7.93c10.83-4.08,16.21,2.65,18,5.72,3.65,6.21,3.65,15.78-2.61,21C161.61,84,134.1,100.37,87,77.48S.38,88,0,88.35L.54,89,0,89.3l4.9,7.87v1.06c1.37-.38,38.56-5.71,73,22.64,20.25,16.73,43.55,21.18,66,23.16,4.77.42,9.4.6,13.85.6,21.7,0,39-4.92,48.55-14.07,27.16-25.93,58.7-15.89,86.51-7.08,22.45,7.08,45.64,14.5,53.88-9C351.18,101.65,348.74,89.11,340.11,81Z"/><path class="cls-1" d="M105.77,50.49c.26-.24.52-.55.79-.85-5.23.11-12.74-3.56-18.16-8.9-8.73-8.59-13.94-20.52-12.55-18.6,5,6.93,9.35,13.14,15.08,17.4,7.45,5.54,16.32,7.12,17.53,7.71,5.39-7.84,7.31-20.46-4.83-26.95-5.57-2.8-11.37,2.2-18.31-1.05A17.72,17.72,0,0,1,73.9.5L73.39,0C70.77,8.86,66.76,30.92,71,40.57,78.45,58,96.43,59.5,105.77,50.49Z"/></g></g></svg>