<?xml version="1.0" encoding="utf-8"?>
<!-- Generator: Adobe Illustrator 22.1.0, SVG Export Plug-In . SVG Version: 6.00 Build 0)  -->
<svg version="1.1" id="Layer_1" xmlns="http://www.w3.org/2000/svg" xmlns:xlink="http://www.w3.org/1999/xlink" x="0px" y="0px"
	 viewBox="0 0 145.4 135.8" style="enable-background:new 0 0 145.4 135.8;" xml:space="preserve">
<style type="text/css">
	.st0{fill:#FFFFFF;}
</style>
<title>Asset 37</title>
<g id="Layer_2_1_">
	<g id="Layer_1-2">
		<path class="st0" d="M145,130.4c-5.2,2.7-16.2,5.4-30,5.4c-32,0-55.9-20.2-55.9-57.6c0-35.7,24.1-59.6,59.3-59.6
			c14,0,23.1,3,27,5.1l-3.7,12c-5.4-2.7-13.3-4.7-22.8-4.7c-26.6,0-44.3,17-44.3,46.8c0,28,16,45.7,43.5,45.7
			c9.1,0,18.2-1.8,24.1-4.7L145,130.4z"/>
		<path class="st0" d="M22.4,44.7C10,44.8,0,34.7,0,22.4S10,0,22.3,0c12.4,0,22.4,10,22.4,22.4C44.7,34.7,34.7,44.7,22.4,44.7z
			 M22.4,9.2c-7.3,0-13.2,5.9-13.2,13.2S15,35.6,22.3,35.6c7.3,0,13.2-5.9,13.2-13.2c0,0,0,0,0,0C35.5,15.1,29.6,9.2,22.4,9.2z"/>
	</g>
</g>
</svg>
