<svg xmlns="http://www.w3.org/2000/svg" viewBox="0 0 201.2 219.3"><defs><style>.cls-1{fill:#31535b;}</style></defs><title>Asset 30</title><g id="Layer_2" data-name="Layer 2"><g id="Layer_1-2" data-name="Layer 1"><path class="cls-1" d="M200.27,97.55h-4.44a19,19,0,0,0-2.6.22C182.17,99.35,171.66,83.1,167.08,74c32.53-27.77,32.23-28.55,31-32l-1.18-3h-3.11l-1.5.25c-1.15.3-8.08,1-18.5,1-22.33,0-40-3.1-48.38-8.48l-7.22-4.74c-17-11.22-36.35-23.95-55.1-23.95-13.84,0-26.74,5.76-34.33,9.94A14.39,14.39,0,0,0,0,14.43V204.88a14.44,14.44,0,0,0,28.87,0V106.15c.18-5.73,33.17-18.21,44.84-18.21,1.81,0,3.8-.16,5.91-.36,8.62-.82,20.48-3.53,35.76,17.37,6.1,8.31,17.29,12.52,33.23,12.52,14.83,0,52.59-6.74,52.59-15.2ZM20,204.88a5.54,5.54,0,0,1-11.07,0V14.43a5.54,5.54,0,0,1,11.07,0V204.88Zm128.64-96.32c-8.9,0-20.66-1.53-26-8.87-14-19.19-27.36-21.43-36.14-21.43-2.71,0-5.26.23-7.63.46-1.82.17-3.53.32-5.09.32-6.41,0-31.3,5.79-44.84,15.22V23.34c5-3.15,19.38-11.28,34.19-11.28,16.07,0,34.21,12,50.2,22.49l7.31,4.76c13.44,8.63,39.1,9.92,53.19,9.92,2.67,0,5.55,0,8.31-.17-6.19,5.61-15,13.31-23.36,20.41l-2.51,2.14,1.32,3c1.15,2.65,9.83,21.7,23.32,29.16C172,106.21,160,108.56,148.61,108.56Z"/></g></g></svg>