<svg xmlns="http://www.w3.org/2000/svg" viewBox="0 0 239.39 187.96"><defs><style>.cls-1{fill:#31535b;}</style></defs><title>Asset 27</title><g id="Layer_2" data-name="Layer 2"><g id="Layer_1-2" data-name="Layer 1"><path class="cls-1" d="M136.22,1.3a88.15,88.15,0,0,1-20.43,158.14,91.08,91.08,0,0,1-12.09,2.9,88.14,88.14,0,1,0,32.52-161Z"/><polygon class="cls-1" points="61 184.49 38.61 174.97 18.04 187.96 20.24 163.72 1.5 148.18 25.25 142.8 34.21 120.16 46.71 141.04 70.99 142.6 54.99 160.94 61 184.49"/><polygon class="cls-1" points="47.34 73.58 29.51 65.99 13.17 76.34 14.9 57.06 0 44.68 18.89 40.41 26.02 22.39 35.96 38.98 55.28 40.24 42.57 54.84 47.34 73.58"/><polygon class="cls-1" points="127.42 102.98 112.07 96.46 98.01 105.33 99.49 88.75 86.68 78.1 102.93 74.44 109.06 58.94 117.62 73.24 134.24 74.3 123.3 86.87 127.42 102.98"/></g></g></svg>