<svg xmlns="http://www.w3.org/2000/svg" viewBox="0 0 358.22 282.7"><defs><style>.cls-1{fill:#31535b;}</style></defs><title>Asset 7</title><g id="Layer_2" data-name="Layer 2"><g id="Layer_1-2" data-name="Layer 1"><path class="cls-1" d="M324.23,105c.14-1.63.22-3.24.22-4.85A55.32,55.32,0,0,0,269.2,44.94a54.56,54.56,0,0,0-29,8.28C234.8,21.78,206-1.76,172.26.1c-32.1,1.59-57.53,25.09-61.7,55.22a53.18,53.18,0,0,0-17.87-3.11,55.3,55.3,0,0,0-55.23,55.24c0,.66,0,1.31.07,2C22.1,113.65,0,122.58,0,154.12c0,23.44,19.51,43.56,46.05,44.82l8.13-12.53c-1,0-2.06,0-2.81.08l-2,0c-20.13,0-36.52-14.55-36.53-32.43,0-21.31,11.6-28.22,33.09-33.55l4.83-1.84.14-4.88-.25-2.61a29.67,29.67,0,0,1-.36-3.78A42.43,42.43,0,0,1,92.69,65.07a41.75,41.75,0,0,1,20.58,5.57L123,76.11l-.2-11.19c-.48-27.72,21.53-50.56,50.07-52l2.78-.08c28.07,0,51.11,21.28,52.45,48.47a41.91,41.91,0,0,1-.13,4.42l-.58,16.52L239,70.49A42,42,0,0,1,269.2,57.8a42.44,42.44,0,0,1,42.4,42.38,42.89,42.89,0,0,1-.86,8.46l-1.3,6.46,6.47,1.14c16.56,2.89,28.65,15.72,29.41,31.18s-9.93,33.15-26.14,38.26l4.28,12c20.49-6.81,35.84-28,34.7-50.86C357.19,127.29,343.57,110.85,324.23,105Z"/><path class="cls-1" d="M114.91,248.94h0C93.59,220.38,95,171.17,94,186.93c-2.68,41.13-18.89,62-18.89,62h0A18,18,0,0,0,73,257.37c0,10.89,9.84,19.72,22,19.72s22-8.83,22-19.72A17.93,17.93,0,0,0,114.91,248.94Z"/><path class="cls-1" d="M182.63,210.19h0C164,185.24,165.26,142.28,164.38,156,162,192,147.91,210.19,147.91,210.19h0a15.67,15.67,0,0,0-1.87,7.35c0,9.51,8.61,17.22,19.22,17.22s19.24-7.71,19.24-17.22A15.79,15.79,0,0,0,182.63,210.19Z"/><path class="cls-1" d="M235.09,260.21h0c-17-22.83-15.88-62.15-16.73-49.56-2.11,32.86-15.07,49.56-15.07,49.56h0a14.38,14.38,0,0,0-1.69,6.73c0,8.7,7.86,15.76,17.61,15.76s17.58-7.06,17.58-15.76A14.39,14.39,0,0,0,235.09,260.21Z"/><path class="cls-1" d="M256.24,193.17h0c-10.71-14.37-10-39.11-10.5-31.19-1.36,20.69-9.49,31.19-9.49,31.19h0a8.71,8.71,0,0,0-1.09,4.23c0,5.49,5,9.93,11.09,9.93s11.07-4.44,11.07-9.93A8.81,8.81,0,0,0,256.24,193.17Z"/></g></g></svg>