<svg xmlns="http://www.w3.org/2000/svg" viewBox="0 0 377.22 390.53"><defs><style>.cls-1{fill:#31535b;}</style></defs><title>Asset 23</title><g id="Layer_2" data-name="Layer 2"><g id="Layer_1-2" data-name="Layer 1"><polygon class="cls-1" points="224.52 180.75 218.76 180.75 159.13 276.01 229.17 276.11 157.07 387.33 155.02 390.52 259.35 264.05 184.14 263.67 224.52 180.75"/><path class="cls-1" d="M114.93,257.52C93.61,229,95,179.74,94,195.51c-2.66,41.11-18.86,62-18.86,62a17.82,17.82,0,0,0-2.14,8.4c0,10.89,9.86,19.72,22,19.72s22-8.83,22-19.72a17.93,17.93,0,0,0-2.13-8.4Z"/><path class="cls-1" d="M184.5,192.48a15.55,15.55,0,0,0-1.87-7.35h0c-18.62-25-17.38-67.9-18.28-54.15-2.32,35.92-16.47,54.15-16.47,54.15a15.67,15.67,0,0,0-1.87,7.35c0,9.52,8.62,17.2,19.24,17.2S184.5,202,184.5,192.48Z"/><path class="cls-1" d="M245.73,170.54c-1.35,20.68-9.51,31.18-9.51,31.18a9.3,9.3,0,0,0-1.06,4.26c0,5.45,5,9.9,11.08,9.9s11.07-4.45,11.07-9.9a8.94,8.94,0,0,0-1.07-4.26h0C245.52,187.37,246.24,162.6,245.73,170.54Z"/><path class="cls-1" d="M373.84,48.16A69.58,69.58,0,0,0,295.75,1,69.46,69.46,0,0,1,321,89.64,55.31,55.31,0,0,0,269.21,53.5a54.62,54.62,0,0,0-29,8.27c-5.36-31.44-34.17-55-67.91-53.12-32.11,1.61-57.54,25.1-61.69,55.22A53.66,53.66,0,0,0,92.7,60.78,55.3,55.3,0,0,0,37.45,116c0,.66,0,1.29.08,2C22.11,122.21,0,131.13,0,162.67c0,23.45,19.51,43.58,46.05,44.83L54.17,195l-2.8.1-2,0c-20.13,0-36.52-14.54-36.54-32.41,0-21.31,11.62-28.23,33.1-33.56l4.83-1.84.14-4.86-.25-2.63a26.16,26.16,0,0,1-.35-3.77A42.43,42.43,0,0,1,92.7,73.62a41.62,41.62,0,0,1,20.57,5.58L123,84.67l-.2-11.2c-.47-27.73,21.52-50.55,50.07-51.95l2.77-.09c28.08,0,51.13,21.26,52.47,48.45.05,1,0,2-.12,4.44l-.59,16.5L239,79a42.34,42.34,0,0,1,72.36,25.48,69.2,69.2,0,0,1-31.76,21.39,75,75,0,0,1-9.56,2.3A69.51,69.51,0,0,0,329,135.8c1.86-.6,3.65-1.33,5.42-2.06A32,32,0,0,1,345.32,156c.78,15.5-9.91,33.15-26.14,38.26l4.29,12c20.46-6.81,35.83-28,34.69-50.87a44.49,44.49,0,0,0-11.92-27.95A69.58,69.58,0,0,0,373.84,48.16Z"/></g></g></svg>