<svg xmlns="http://www.w3.org/2000/svg" viewBox="0 0 358.22 339.01"><defs><style>.cls-1{fill:#31535b;}</style></defs><title>Asset 16</title><g id="Layer_2" data-name="Layer 2"><g id="Layer_1-2" data-name="Layer 1"><path class="cls-1" d="M324.23,105c.13-1.63.21-3.24.21-4.86A55.29,55.29,0,0,0,269.21,45a54.61,54.61,0,0,0-29,8.26C234.79,21.77,206-1.76,172.26.1c-32.09,1.6-57.54,25.08-61.69,55.22a53.25,53.25,0,0,0-17.89-3.11,55.3,55.3,0,0,0-55.23,55.23c0,.67,0,1.31.08,2C22.11,113.66,0,122.58,0,154.13c0,23.44,19.51,43.56,46.05,44.8l8.13-12.53c-1,0-2.06.06-2.81.09l-2,0c-20.14,0-36.53-14.56-36.55-32.42,0-21.32,11.61-28.23,33.08-33.56l4.83-1.84.14-4.88-.23-2.61a26.57,26.57,0,0,1-.36-3.79A42.43,42.43,0,0,1,92.68,65.07a41.74,41.74,0,0,1,20.58,5.57L123,76.11l-.2-11.18c-.47-27.73,21.51-50.57,50.06-52l2.78-.06c28.08,0,51.12,21.26,52.47,48.46.05,1,0,1.94-.14,4.42l-.57,16.52L239,70.49A42,42,0,0,1,269.21,57.8a42.43,42.43,0,0,1,42.39,42.37,43.78,43.78,0,0,1-.86,8.48l-1.31,6.45,6.49,1.15c16.56,2.89,28.64,15.71,29.4,31.16s-9.91,33.16-26.15,38.28l4.3,11.95c20.46-6.8,35.83-28,34.69-50.85C357.2,127.29,343.56,110.85,324.23,105Z"/><path class="cls-1" d="M72.67,224.66H76.4V221H72.67Zm14.51,4.94,2.63,2.61,2.65-2.61L89.81,227ZM67.46,204.87l-2.61,2.65,2.64,2.59,2.6-2.59Zm35.81,19.79H107V221h-3.73Zm-27.09-34.6H72.49v3.7h3.69Zm31.09,0h-3.72v3.7h3.72ZM92.35,185l-2.64-2.62L87.08,185l2.63,2.62ZM110.7,213l-2.37-5.68,2.37-5.4-4.36,4.54H99.25l2.57-4-4.56-.86,5-5.09h6.19l-5.66-2.06-2.14-5.65v6.27l-4.92,5.13L95,195.38l-4.1,2.78v-6.91l4.48-4.66L90,189.25l-5.59-2.45,4.48,4.45v6.91l-4.16-2.49-.69,4.59-5-5.13v-6.27l-2,5.65-5.82,2.24h6.26l5,4.91-5.15,1.13,3.17,3.71H73.46L69,202l2.14,5.56L69,213l4.45-4.67h7.11L77.4,212.5l5.15.82-5,5H71.28l5.82,2L79,225.93l.08-6.16,4.83-4.83.88,5,4.16-3.09v7.11l-4.48,4.36,5.45-2.4,5.35,2.4-4.36-4.36v-7.11l4.1,2.79.75-4.87,5,5,.11,6.16,1.81-5.45,5.79-2.15h-6.19l-5-4.83,4.84-1.41-2.85-3.72h7.09Zm-26.25-9.37,3,2.83H83.42Zm.21,7.79-1.24-3.09H87.5ZM88.93,214l-2.76-1.14,2.76-3Zm0-8.91-2.76-2.84L88.93,201Zm6.32-1.4,1.07,2.83H92.23ZM91,201l2.93,1.22L91,205.07Zm0,13.07v-4.26l2.93,2.83Zm4.09-2.62-2.86-3.09h4.36Zm16.78-6.66-2.62,2.6,2.62,2.62,2.65-2.62Z"/><path class="cls-1" d="M222,204.9h4.83v-4.76H222Zm18.82,6.41,3.41,3.35,3.43-3.35-3.43-3.43Zm-25.59-32.07-3.38,3.43,3.43,3.34,3.36-3.34Zm46.45,25.66h4.84v-4.76h-4.84ZM226.51,160h-4.78v4.82h4.78Zm40.31,0H262v4.82h4.81Zm-19.35-6.59-3.42-3.38-3.4,3.38,3.4,3.42Zm23.81,36.41-3.09-7.4,3.09-7-5.66,5.9h-9.2l3.32-5.18-5.91-1.11,6.52-6.6h8L261,165.8l-2.78-7.33v8.12l-6.37,6.64-1-6.31-5.3,3.62v-9l5.79-6L244.47,159l-7.23-3.18,5.79,5.77v9l-5.38-3.26-.89,5.95-6.52-6.64v-8.12l-2.54,7.33-7.55,2.91h8.11l6.51,6.36-6.68,1.47,4.11,4.82H223l-5.79-5.9,2.8,7.21-2.8,7.17,5.79-6.06h9.21l-4.11,5.35,6.68,1.06-6.51,6.49h-8.11l7.55,2.61,2.43,7.26.11-8,6.27-6.27,1.14,6.49,5.38-4V204l-5.79,5.67,7-3.11,7,3.11L245.6,204v-9.21l5.3,3.61,1-6.29,6.49,6.47.14,8,2.35-7.07,7.51-2.8h-8l-6.52-6.24,6.28-1.85-3.69-4.81h9.2Zm-34-12.17,3.94,3.69h-5.29Zm.26,10.08-1.61-4h5.29Zm5.53,3.31-3.57-1.48,3.57-3.93Zm0-11.57-3.57-3.69,3.57-1.58Zm8.22-1.82,1.37,3.69H247.3Zm-5.52-3.45,3.79,1.58-3.79,3.69Zm0,16.95v-5.52l3.79,3.69Zm5.29-3.42-3.72-4H253Zm21.78-8.63-3.42,3.39,3.42,3.39,3.41-3.39Z"/><path class="cls-1" d="M106.28,329.24h4.85v-4.77h-4.85Zm18.83,6.4,3.42,3.37,3.42-3.37-3.42-3.42ZM99.52,303.56,96.13,307l3.42,3.35,3.39-3.35ZM146,329.24h4.82v-4.77H146Zm-35.13-44.9h-4.78v4.82h4.78Zm40.31,0h-4.82v4.82h4.82Zm-19.36-6.58-3.41-3.38L125,277.76l3.41,3.4Zm23.83,36.4-3.1-7.39,3.1-7L150,305.69h-9.21l3.33-5.18-5.91-1.1,6.52-6.62h8l-7.34-2.66-2.76-7.34v8.13l-6.37,6.65-1-6.32-5.32,3.62v-9l5.8-6.05-6.91,3.45-7.23-3.18,5.79,5.78v9L122,291.6l-.9,6-6.52-6.65v-8.13L112,290.13l-7.56,2.92h8.13l6.51,6.36-6.69,1.46,4.1,4.82h-9.2l-5.79-5.88,2.79,7.18-2.79,7.17,5.79-6.06h9.2l-4.1,5.38,6.69,1L112.6,321h-8.13l7.56,2.61,2.43,7.25.1-8,6.28-6.25,1.14,6.48,5.38-4v9.23L121.57,334l7.06-3.1,7,3.1-5.67-5.65v-9.23l5.32,3.62,1-6.31,6.49,6.48.13,8,2.36-7.08,7.49-2.78h-8l-6.52-6.25,6.28-1.85-3.7-4.82H150ZM121.57,302l3.93,3.69h-5.28Zm.26,10.08-1.61-4h5.28Zm5.53,3.32-3.57-1.48,3.57-3.94Zm0-11.6-3.57-3.67,3.57-1.58Zm8.22-1.8,1.36,3.69h-5.31Zm-5.52-3.45,3.79,1.58-3.79,3.67Zm0,16.95V310l3.79,3.69Zm5.27-3.42-3.7-4h5.66Zm21.79-8.63-3.42,3.38,3.42,3.4,3.42-3.4Z"/><path class="cls-1" d="M182.33,267.61h3.36v-3.33h-3.36ZM195.41,272l2.37,2.36,2.37-2.36-2.37-2.36Zm-17.78-22.26-2.35,2.4,2.37,2.3,2.34-2.3Zm32.28,17.85h3.35v-3.33h-3.35Zm-24.4-31.18h-3.35v3.34h3.35Zm28,0h-3.36v3.34h3.36Zm-13.46-4.59-2.37-2.35-2.36,2.35,2.36,2.36Zm16.54,25.29L214.45,252l2.14-4.84-3.92,4.07h-6.39l2.31-3.57-4.11-.78,4.53-4.59h5.56l-5.1-1.85-1.93-5.08V241l-4.42,4.6-.69-4.37-3.68,2.49V237.5l4-4.2-4.8,2.39-5-2.2,4,4v6.21l-3.74-2.25-.6,4.13-4.53-4.6v-5.64l-1.76,5.08-5.26,2h5.65l4.51,4.42-4.63,1,2.84,3.33H183l-4-4.07,1.93,5-1.93,5,4-4.2h6.4l-2.84,3.7,4.63.75-4.51,4.5h-5.65l5.26,1.81,1.68,5.05.08-5.56,4.34-4.35.79,4.5,3.74-2.8v6.41l-4,3.92,4.91-2.14,4.81,2.14-3.92-3.92v-6.41l3.68,2.52.69-4.37,4.49,4.5.09,5.56,1.65-4.91,5.22-1.95H209l-4.53-4.33,4.36-1.29-2.56-3.33h6.39ZM193,248.68l2.74,2.54H192Zm.18,7L192,252.93h3.68ZM197,258l-2.47-1,2.47-2.73Zm0-8-2.47-2.55,2.47-1.1Zm5.71-1.25,1,2.54h-3.69Zm-3.82-2.4,2.62,1.1-2.62,2.55Zm0,11.79v-3.85l2.62,2.56Zm3.67-2.39-2.58-2.75h3.94Zm15.14-6L215.29,252l2.37,2.37L220,252Z"/><path class="cls-1" d="M149.31,202.5h2.37v-2.34h-2.37Zm9.21,3.12,1.67,1.67,1.67-1.67L160.19,204ZM146,190l-1.66,1.68,1.67,1.63,1.64-1.63Zm22.71,12.54h2.36v-2.34h-2.36Zm-17.18-21.93h-2.34v2.35h2.34Zm19.7,0H168.9v2.35h2.35Zm-9.45-3.23-1.68-1.65-1.66,1.65,1.66,1.67Zm11.64,17.8-1.5-3.62,1.5-3.41L170.66,191h-4.48l1.61-2.53-2.89-.55,3.19-3.23H172l-3.6-1.31-1.35-3.56v4L163.94,187l-.47-3.09-2.59,1.76v-4.38l2.84-3-3.39,1.7-3.54-1.56,2.84,2.82v4.38L157,184.12l-.43,2.91-3.19-3.25v-4l-1.25,3.56-3.69,1.44h4l3.18,3.1-3.27.72,2,2.36h-4.5L147,188.11l1.37,3.53-1.37,3.5,2.84-3h4.5l-2,2.62,3.27.52-3.18,3.18h-4l3.69,1.26,1.2,3.56.05-3.92,3.07-3,.55,3.16,2.64-2v4.52l-2.84,2.75,3.45-1.51,3.4,1.51-2.76-2.75v-4.52l2.59,1.77.47-3.09,3.18,3.17.08,3.92,1.14-3.46,3.67-1.36h-3.92l-3.19-3.05,3.09-.92-1.81-2.35h4.48Zm-16.65-5.95,1.93,1.81h-2.58Zm.14,4.93-.79-2h2.58Zm2.7,1.62-1.75-.72,1.75-1.92Zm0-5.67-1.75-1.79,1.75-.77Zm4-.88.67,1.81h-2.6Zm-2.7-1.68,1.85.77-1.85,1.79Zm0,8.28V193.1l1.85,1.79Zm2.59-1.67-1.82-2h2.78Zm10.66-4.21-1.68,1.64,1.68,1.66,1.65-1.66Z"/><path class="cls-1" d="M249.69,272.09h2.69v-2.66h-2.69Zm10.51,3.57,1.9,1.88,1.9-1.88-1.9-1.91Zm-14.3-17.9L244,259.68l1.9,1.85,1.9-1.85Zm25.92,14.33h2.71v-2.66h-2.71Zm-19.6-25h-2.67v2.67h2.67Zm22.51,0H272v2.67h2.69Zm-10.82-3.69-1.9-1.88-1.9,1.88,1.9,1.91Zm13.31,20.33-1.74-4.13,1.74-3.9-3.16,3.29h-5.15l1.86-2.88-3.31-.62,3.63-3.71h4.49l-4.11-1.47-1.55-4.09v4.53l-3.54,3.72-.54-3.54-3,2v-5l3.23-3.39-3.85,1.94-4-1.78,3.24,3.23v5l-3-1.8-.5,3.32-3.65-3.72v-4.53l-1.4,4.09-4.22,1.62h4.53l3.63,3.56-3.73.82,2.28,2.68h-5.13L247,255.65l1.55,4-1.55,4,3.22-3.38h5.13l-2.28,3,3.73.59-3.63,3.61h-4.53l4.22,1.47,1.35,4.06,0-4.47,3.51-3.5.64,3.62,3-2.25v5.15l-3.24,3.16,4-1.74,3.86,1.74-3.15-3.16v-5.15l3,2,.54-3.55,3.62,3.64.08,4.47,1.3-4,4.2-1.57h-4.49L267.46,264l3.51-1-2.06-2.68h5.15Zm-19-6.8,2.2,2.06h-3Zm.14,5.64-.9-2.22h3Zm3.1,1.84-2-.82,2-2.2Zm0-6.46-2-2.06,2-.88Zm4.57-1,.77,2.06h-3ZM263,255l2.11.88L263,257.9Zm0,9.48v-3.1l2.11,2.06Zm2.95-1.92-2.08-2.22H267Zm12.15-4.83-1.91,1.88,1.91,1.92,1.9-1.92Z"/></g></g></svg>